<svg xmlns="http://www.w3.org/2000/svg" xmlns:xlink="http://www.w3.org/1999/xlink" width="395" height="81"><defs><linearGradient id="A" x1="50%" x2="50%" y1="0%" y2="100%"><stop offset="0%" stop-color="#2abffd"/><stop offset="100%" stop-color="#27c4a1"/></linearGradient><path id="B" d="M22.272 63.282l5.405-5.497c.766-.78 1.384-.516 1.384.584V81h-8.173V66.68c0-1.1.62-2.62 1.384-3.4zM59.507 49.65l5.405-5.514c.766-.78 1.384-.52 1.384.583V81h-8.173V53.058c0-1.104.62-2.628 1.384-3.41zm11.747-11.6l4.615-4.842c.732-.77 1.325-.5 1.325.577V81H69.93V41.406c0-1.086.593-2.59 1.325-3.357zM47.035 62l5.16-5.143c.766-.764 1.386-.506 1.386.572V81h-8.173V65.592c0-1.078.364-2.318.813-2.768l.814-.815zm-12.047-4.232l4.16 4.16 1.314 1.3c.726.723 1.314 2.188 1.314 3.27V81h-8.173V58.352c0-1.082.62-1.34 1.386-.575zM12.177 73.53l3.7-3.9c.762-.802 1.378-.533 1.378.6V81H8.173v-1.624c0-.898.616-2.275 1.376-3.077l2.628-2.77zm75.417-40.636l-9.905-9.927-33.137 33.23a1.99 1.99 0 0 1-2.813 0l-10.052-10.07L13.77 64.1c-3.103 3.116-8.14 3.116-11.245.002l-.195-.197c-3.106-3.114-3.108-8.163-.002-11.28L30.282 24.58c.777-.777 2.034-.78 2.81 0l10.052 10.077L66.25 11.492 56.202 1.41c-.777-.78-.515-1.41.583-1.41H85.03C87.052 0 89 1.786 89 3.825V32.3c0 1.1-.63 1.364-1.406.584z"/></defs><g fill="none" fill-rule="evenodd"><g fill-rule="nonzero"><use fill="#010002" xlink:href="#B"/><use fill="url(#A)" xlink:href="#B"/></g><path fill="url(#A)" d="M122.625 33.505c1.5 0 2.827-.405 3.983-1.215s1.733-2.032 1.733-3.668-.622-2.887-1.868-3.758-3.015-1.627-5.3-2.272-3.96-1.207-4.995-1.687a13.27 13.27 0 0 1-2.948-1.89c-1.86-1.56-2.8-3.975-2.8-7.245 0-2.67.952-4.965 2.857-6.885s4.507-2.88 7.808-2.88c1.6 0 3.247.232 4.972.698s2.797.697 3.218.697.795-.3 1.125-.9h.495l.315 9.1h-.72c-1.44-2.6-2.947-4.702-4.523-6.277s-3.285-2.362-5.13-2.362-3.277.427-4.297 1.282-1.53 1.995-1.53 3.42.607 2.52 1.823 3.285 2.707 1.387 4.477 1.867l3.488 1 2.07.742c.825.315 1.5.645 2.025 1s1.08.78 1.665 1.305 1.042 1.102 1.373 1.733c.8 1.44 1.215 3.15 1.215 5.13 0 3.24-1.012 5.842-3.037 7.808s-4.687 2.948-7.988 2.948c-1.7 0-3.667-.225-5.873-.675L112.6 33.1c-.42 0-.825.45-1.215 1.35h-.63l-.45-10.7h.765c1.32 2.6 3.007 4.9 5.063 6.84s4.222 2.925 6.502 2.925zm15.075-5.94V13.4h-2.475v-.8h2.475V6.775l8.37-2.07v7.875h5.85v.8h-5.85v15.165c0 1.4.142 2.445.428 3.105s.877 1 1.778 1 1.687-.45 2.362-1.35 1.117-2.13 1.328-3.7l.765.1c-.24 2.07-.9 3.712-1.98 4.927s-2.865 1.823-5.355 1.823-4.395-.495-5.715-1.485-1.98-2.8-1.98-5.4zm30.015-2.43V21.3c0-2.9-.157-5.032-.472-6.367s-1.042-2.003-2.183-2.003c-.66 0-1.192.187-1.597.563s-.697.997-.877 1.867c-.27 1.35-.405 3.405-.405 6.165v3.5c0 3.27.097 5.235.292 5.895s.397 1.2.607 1.62c.33.72.975 1.08 1.935 1.08 1.17 0 1.935-.675 2.295-2.025.27-.96.405-3.12.405-6.48zm-2.8 9.315c-3.75 0-6.585-.96-8.505-2.88s-2.88-4.672-2.88-8.257 1.027-6.345 3.083-8.28 4.942-2.902 8.662-2.902 6.495.892 8.325 2.677 2.745 4.507 2.745 8.168c0 7.65-3.8 11.475-11.43 11.475zm27.72-20.6c-1.1 0-2.085.72-2.925 2.16s-1.26 3.15-1.26 5.13V33.2h3.195v.8h-14.04v-.8h2.475V13.4h-2.475v-.8h10.845v4.32c.4-1.53 1.14-2.707 2.25-3.532s2.37-1.237 3.78-1.237 2.557.397 3.442 1.192 1.327 1.92 1.327 3.375-.33 2.572-1 3.352-1.672 1.17-3.037 1.17-2.37-.45-3.015-1.35-.728-2.145-.248-3.735h1.62c.75-1.53.435-2.295-.945-2.295zm18.855 20.6c-3.87 0-6.772-.997-8.707-2.993s-2.903-4.77-2.903-8.325 1.087-6.277 3.263-8.167 4.942-2.835 8.302-2.835c6.8 0 10.08 3.42 9.8 10.26h-12.7v1.755c0 2.94.375 5.16 1.125 6.66s2.055 2.25 3.915 2.25c3.48 0 5.76-1.86 6.84-5.58l.8.135c-.57 2.16-1.597 3.84-3.082 5.04s-3.712 1.8-6.683 1.8zm-2.88-12.96h4.635v-2.205c0-2.43-.142-4.087-.428-4.972s-.855-1.328-1.7-1.328-1.485.472-1.9 1.418-.608 2.572-.608 4.883V21.5zm34.1 2.925c0 2.76.472 4.875 1.418 6.345s2.647 2.205 5.107 2.205 4.35-.765 5.67-2.295 1.98-3.855 1.98-6.975V3.355h-2.925V2.5h6.57v.855h-2.475V23.38c0 3.72-.825 6.495-2.475 8.325s-4.567 2.745-8.752 2.745-7.38-.87-9.585-2.6-3.308-4.725-3.308-8.955V3.355h-2.475V2.5h14.175v.855h-2.925v21.06zm34.965-2.52c0-3.1-.15-5.167-.45-6.232s-.885-1.598-1.755-1.598-1.65.562-2.34 1.688-1.035 2.632-1.035 4.522V28.5c0 1.3.255 2.385.765 3.285s1.26 1.35 2.25 1.35 1.665-.66 2.025-1.98.54-3.63.54-6.93v-2.34zm-5.67-9.315v3.555c1.17-2.67 3.24-4.005 6.2-4.005 2.58 0 4.582.93 6.007 2.8s2.137 4.68 2.137 8.46-.772 6.57-2.317 8.37-3.862 2.7-6.952 2.7c-1.44 0-2.52-.18-3.24-.54s-1.305-.915-1.755-1.665V43.9h5.805v.8h-16.65v-.8h2.475V13.4h-2.385v-.8h10.665zm29.97.8v-.8h11.6v.8h-1.845l4.05 15.165 4.005-15.165H316.7v-.8h6.075v.8h-1.9l-5.4 20.6h-6.165l-3.915-13.815L301.185 34h-6.03l-6.66-20.6h-2.025v-.8h13.635v.8h-2.7l4.14 15.3 3.24-10.53-1.125-4.77h-1.665zM333 23.425h1.305V19.96c0-2.85-.157-4.762-.473-5.738S332.9 12.76 332 12.76a2.61 2.61 0 0 0-1.462.428c-.435.285-.653.675-.653 1.17a4.51 4.51 0 0 0 .27 1.508h1.125c.24.63.36 1.387.36 2.272s-.375 1.65-1.125 2.295-1.695.967-2.835.967c-2.58 0-3.87-1.245-3.87-3.735 0-3.7 3.135-5.535 9.405-5.535 3.57 0 6.037.607 7.402 1.822s2.048 3.442 2.048 6.683v9.135c0 1.56.435 2.34 1.305 2.34 1.02 0 1.62-1.545 1.8-4.635l.675.045c-.12 2.64-.615 4.455-1.485 5.445s-2.295 1.485-4.275 1.485c-3.6 0-5.67-1.1-6.2-3.33-.4 1.14-.975 1.98-1.755 2.52s-1.92.8-3.42.8c-4.44 0-6.66-1.815-6.66-5.445 0-2.13.847-3.592 2.543-4.387s4.297-1.192 7.808-1.192zm-1.8 5.535c0 1.56.082 2.565.248 3.015s.48.675.945.675.9-.382 1.305-1.147.608-1.822.608-3.173v-4.185H334c-1.86 0-2.8 1.365-2.8 4.095v.72zm30.735-15.12c-1.1 0-2.085.72-2.925 2.16s-1.26 3.15-1.26 5.13V33.2h3.195v.8h-14.04v-.8h2.475V13.4h-2.475v-.8h10.845v4.32c.4-1.53 1.14-2.707 2.25-3.532s2.37-1.237 3.78-1.237 2.557.397 3.443 1.192 1.327 1.92 1.327 3.375-.33 2.572-1 3.352-1.672 1.17-3.037 1.17-2.37-.45-3.015-1.35-.728-2.145-.248-3.735h1.62c.75-1.53.435-2.295-.945-2.295zm16.38 10.845c0 3.15.165 5.242.495 6.278s.937 1.553 1.822 1.553 1.65-.4 2.295-1.17.967-1.935.967-3.465v-9.8c0-1.3-.255-2.385-.765-3.285s-1.26-1.35-2.25-1.35-1.665.66-2.025 1.98-.54 3.63-.54 6.93v2.34zM384.48 34l-.495-3.15c-1.02 2.4-3.1 3.6-6.2 3.6-2.58 0-4.582-.93-6.007-2.8s-2.137-4.635-2.137-8.325c0-7.47 2.97-11.205 8.9-11.205 2.64 0 4.38.735 5.22 2.205V1.06h-2.745v-.8h11.25V33.2h2.205v.8h-10zM116.805 80.35c-1.26 0-2.403-.315-3.43-.945s-1.85-1.476-2.468-2.537-.927-2.246-.927-3.553V62.22c0-1.26.31-2.42.927-3.483s1.447-1.907 2.485-2.537 2.176-.945 3.413-.945c1.283 0 2.444.31 3.482.927a6.86 6.86 0 0 1 2.468 2.503c.607 1.05.9 2.228.9 3.535v1.6c0 .093-.058.14-.175.14h-3.92c-.093 0-.14-.047-.14-.14V62.5c0-.887-.25-1.622-.753-2.205s-1.126-.875-1.872-.875c-.677 0-1.277.28-1.803.84s-.787 1.213-.787 1.96v11.095a2.79 2.79 0 0 0 .77 1.978c.513.548 1.12.822 1.82.822.747 0 1.37-.268 1.872-.805s.753-1.202.753-1.995V71.6h-2.45c-.117 0-.175-.058-.175-.175v-3.92c0-.117.058-.175.175-.175h6.545c.093 0 .14.058.14.175v5.8c0 1.307-.31 2.49-.927 3.553s-1.44 1.907-2.468 2.537-2.182.945-3.465.945zm10.652-.35c-.093 0-.14-.058-.14-.175l.07-24.045c0-.093.047-.14.14-.14h7.07c1.26 0 2.42.31 3.482.928s1.907 1.447 2.537 2.485.945 2.21.945 3.517c0 .863-.128 1.64-.385 2.327s-.56 1.272-.9 1.75-.665.834-.945 1.068c1.26 1.4 1.9 3.045 1.9 4.935l.035 7.175c0 .117-.058.175-.175.175h-3.955c-.093 0-.14-.035-.14-.105V72.65a3.05 3.05 0 0 0-.893-2.187c-.595-.618-1.324-.928-2.187-.928h-2.3l-.035 10.3c0 .117-.047.175-.14.175h-3.955zm4.13-14.665h3c.723 0 1.365-.268 1.925-.805a2.61 2.61 0 0 0 .84-1.96c0-.747-.274-1.388-.822-1.925s-1.196-.805-1.942-.805h-3v5.495zm20.067 15.015c-1.26 0-2.41-.32-3.447-.962a7.39 7.39 0 0 1-2.502-2.555c-.63-1.062-.945-2.234-.945-3.517l.035-11.095c0-1.283.31-2.45.928-3.5s1.452-1.9 2.502-2.52 2.193-.945 3.43-.945c1.26 0 2.403.315 3.43.945a7.19 7.19 0 0 1 2.468 2.52c.618 1.05.928 2.217.928 3.5l.035 11.095c0 1.283-.31 2.456-.928 3.517a7.24 7.24 0 0 1-2.485 2.555c-1.038.642-2.187.962-3.448.962zm0-4.235c.7 0 1.312-.286 1.838-.858s.787-1.22.787-1.942l-.035-11.095c0-.77-.245-1.423-.735-1.96s-1.108-.805-1.855-.805a2.5 2.5 0 0 0-1.855.788c-.513.525-.77 1.184-.77 1.977v11.095a2.79 2.79 0 0 0 .77 1.978c.513.548 1.132.822 1.855.822zM164.93 80c-.093 0-.152-.058-.175-.175l-4.13-24.045c-.023-.093.012-.14.105-.14h3.92c.093 0 .152.047.175.14l2.24 15.82 2.3-15.82c.023-.093.093-.14.2-.14h3.15c.093 0 .152.047.175.14l2.275 15.82 2.275-15.82c.023-.093.082-.14.175-.14h3.885c.117 0 .163.047.14.14l-4.165 24.045c-.023.047-.058.087-.105.123l-.07.052h-4.235c-.07 0-.128-.058-.175-.175l-1.785-12.565-1.785 12.565c-.023.117-.082.175-.175.175h-4.235zm32.258.35c-1.26 0-2.41-.32-3.447-.962a7.24 7.24 0 0 1-2.485-2.555c-.618-1.062-.928-2.234-.928-3.517v-1.6c0-.117.058-.175.175-.175h3.92c.093 0 .14.058.14.175v1.6a2.79 2.79 0 0 0 .77 1.978c.513.548 1.132.822 1.855.822s1.342-.28 1.855-.84.77-1.213.77-1.96c0-.863-.56-1.6-1.68-2.24l-1.75-.98-2.24-1.26c-1.283-.747-2.234-1.686-2.852-2.817s-.928-2.41-.928-3.832c0-1.307.315-2.48.945-3.518a7.04 7.04 0 0 1 2.502-2.467 6.58 6.58 0 0 1 3.377-.91c1.237 0 2.374.31 3.412.928a7.04 7.04 0 0 1 2.485 2.485c.618 1.038.928 2.2.928 3.483v2.87c0 .093-.047.14-.14.14h-3.92c-.093 0-.14-.047-.14-.14l-.035-2.87c0-.817-.257-1.482-.77-1.995s-1.12-.77-1.82-.77c-.723 0-1.342.274-1.855.822s-.77 1.196-.77 1.943c0 .77.163 1.412.5 1.925s.922 1.003 1.785 1.47c.117.07.344.192.683.368s.706.373 1.103.595l1.067.578c.315.163.507.268.577.315 1.167.653 2.088 1.452 2.765 2.397s1.015 2.106 1.015 3.483c0 1.33-.31 2.526-.927 3.588s-1.447 1.902-2.485 2.52a6.61 6.61 0 0 1-3.447.927zM211 80c-.093 0-.14-.058-.14-.175v-19.95h-4.55c-.117 0-.175-.058-.175-.175l.035-3.92c0-.093.047-.14.14-.14h13.3c.117 0 .175.047.175.14v3.92c0 .117-.047.175-.14.175h-4.585l.035 19.95c0 .117-.047.175-.14.175H211zm17.792.35c-1.26 0-2.41-.32-3.448-.962a7.39 7.39 0 0 1-2.502-2.555c-.63-1.062-.945-2.234-.945-3.517l.035-11.095c0-1.283.31-2.45.927-3.5s1.452-1.9 2.503-2.52 2.193-.945 3.43-.945c1.26 0 2.403.315 3.43.945a7.19 7.19 0 0 1 2.468 2.52c.618 1.05.928 2.217.928 3.5l.035 11.095c0 1.283-.31 2.456-.927 3.517a7.24 7.24 0 0 1-2.485 2.555c-1.038.642-2.187.962-3.448.962zm0-4.235c.7 0 1.312-.286 1.838-.858s.787-1.22.787-1.942l-.035-11.095c0-.77-.245-1.423-.735-1.96s-1.108-.805-1.855-.805a2.5 2.5 0 0 0-1.855.788c-.513.525-.77 1.184-.77 1.977v11.095a2.79 2.79 0 0 0 .77 1.978c.513.548 1.132.822 1.855.822zM239.608 80c-.093 0-.14-.058-.14-.175l.07-24.045c0-.093.047-.14.14-.14h7.07c1.26 0 2.42.31 3.482.928s1.907 1.447 2.538 2.485.945 2.21.945 3.517c0 .863-.128 1.64-.385 2.327s-.56 1.272-.9 1.75-.665.834-.945 1.068c1.26 1.4 1.9 3.045 1.9 4.935l.035 7.175c0 .117-.058.175-.175.175h-3.955c-.093 0-.14-.035-.14-.105V72.65a3.05 3.05 0 0 0-.892-2.187c-.595-.618-1.324-.928-2.187-.928h-2.3l-.035 10.3c0 .117-.047.175-.14.175h-3.955zm4.13-14.665h3c.723 0 1.365-.268 1.925-.805a2.61 2.61 0 0 0 .84-1.96c0-.747-.274-1.388-.822-1.925s-1.196-.805-1.942-.805h-3v5.495zM257.645 80c-.093 0-.14-.058-.14-.175l.035-24.045c0-.093.047-.14.14-.14h11.235c.093 0 .14.058.14.175v3.92c0 .093-.047.14-.14.14h-7.175v5.46h7.175c.093 0 .14.047.14.14l.035 3.955c0 .093-.047.14-.14.14h-7.2v6.125h7.2c.093 0 .14.058.14.175v4c0 .093-.047.14-.14.14h-11.305zm22.213 0c-.093 0-.14-.058-.14-.175l.07-24.045c0-.093.047-.14.14-.14h7.07c1.26 0 2.42.31 3.482.928s1.907 1.447 2.538 2.485.945 2.21.945 3.517c0 .863-.128 1.64-.385 2.327s-.56 1.272-.9 1.75-.665.834-.945 1.068c1.26 1.4 1.9 3.045 1.9 4.935l.035 7.175c0 .117-.058.175-.175.175h-3.955c-.093 0-.14-.035-.14-.105V72.65a3.05 3.05 0 0 0-.892-2.187c-.595-.618-1.324-.928-2.187-.928h-2.3l-.035 10.3c0 .117-.047.175-.14.175h-3.955zm4.13-14.665h3c.723 0 1.365-.268 1.925-.805a2.61 2.61 0 0 0 .84-1.96c0-.747-.274-1.388-.822-1.925s-1.196-.805-1.942-.805h-3v5.495zM297.895 80c-.093 0-.14-.058-.14-.175l.035-24.045c0-.093.047-.14.14-.14h11.235c.093 0 .14.058.14.175v3.92c0 .093-.047.14-.14.14H302v5.46h7.175c.093 0 .14.047.14.14l.035 3.955c0 .093-.047.14-.14.14H302v6.125h7.2c.093 0 .14.058.14.175v4c0 .093-.047.14-.14.14h-11.305zm19.647 0c-.093 0-.152-.058-.175-.175l-4.83-24.045c-.023-.093.023-.14.14-.14h3.955c.093 0 .152.047.175.14l2.87 16.03 2.8-16.03c.023-.093.082-.14.175-.14h3.92c.117 0 .163.047.14.14l-4.76 24.045c-.023.117-.082.175-.175.175h-4.235zm12.542 0c-.093 0-.14-.058-.14-.175l.035-24.045c0-.093.047-.14.14-.14h11.235c.093 0 .14.058.14.175v3.92c0 .093-.047.14-.14.14h-7.175v5.46h7.175c.093 0 .14.047.14.14l.035 3.955c0 .093-.047.14-.14.14h-7.2v6.125h7.2c.093 0 .14.058.14.175v4c0 .093-.047.14-.14.14h-11.305zm16.042 0c-.187 0-.28-.082-.28-.245L345.8 55.92c0-.187.093-.28.28-.28h3.15l5.915 13.8-.175-13.5c0-.187.105-.28.315-.28h3.465c.14 0 .2.093.2.28l.035 23.87c0 .14-.058.2-.175.2h-3.08l-6.055-12.88.245 12.6c0 .187-.105.28-.315.28h-3.5zm23.532.35c-1.237 0-2.38-.32-3.43-.962s-1.884-1.5-2.503-2.573-.927-2.252-.927-3.535l.07-17.5c0-.093.047-.14.14-.14h3.92c.093 0 .14.047.14.14v17.5c0 .793.25 1.464.752 2.013s1.114.822 1.838.822a2.43 2.43 0 0 0 1.872-.822c.502-.548.753-1.22.753-2.013v-17.5c0-.093.047-.14.14-.14h3.92c.093 0 .14.047.14.14l.07 17.5c0 1.307-.31 2.497-.928 3.57s-1.447 1.925-2.485 2.555-2.2.945-3.482.945zm10.967-.35c-.093 0-.14-.058-.14-.175l.035-24.045c0-.093.047-.14.14-.14h11.235c.093 0 .14.058.14.175v3.92c0 .093-.047.14-.14.14h-7.175v5.46h7.175c.093 0 .14.047.14.14l.035 3.955c0 .093-.047.14-.14.14h-7.2v6.125h7.2c.093 0 .14.058.14.175v4c0 .093-.047.14-.14.14h-11.305z"/></g></svg>